# xmcd CD database file
#
# Track frame offsets:
#	150
#	20027
#	43182
#	81135
#	91315
#	103077
#	204682
#	222135
#	243082
#	294475
#	310537
#
# Disc length: 4208 seconds
#
# Revision: 0
# Processed by: cddbd v1.5.2PL0 Copyright (c) Steve Scherf et al.
# Submitted via: CDex 1.70beta2
#
DISCID=93106e0b
DTITLE=Steuart Liebig - Quartetto Stig: Pienso Oculto
DYEAR=1997
DGENRE=Jazz
TTITLE0=Addlepate
TTITLE1=Bear
TTITLE2=Un Giardino Di Vccelli
TTITLE3=Idee Fixe...Idee Fixe
TTITLE4=Karobachka Igorya
TTITLE5=Overcoming Goingunder
TTITLE6=The Sponsor's Short And Vacant Purview
TTITLE7=(Grid)
TTITLE8=Ithaka
TTITLE9=Chester's Book Of Pry-Bars
TTITLE10=Holzschnitte
EXTD=YEAR: 1997
EXTT0=
EXTT1=
EXTT2=
EXTT3=
EXTT4=
EXTT5=
EXTT6=
EXTT7=
EXTT8=
EXTT9=
EXTT10=
PLAYORDER=
